<svg width="152" height="38" viewBox="0 0 152 38" fill="none" xmlns="http://www.w3.org/2000/svg">
  <path d="M75.8484 9.48541C77.1838 9.4621 78.2486 8.42529 78.2267 7.16963C78.2047 5.91397 77.1044 4.91495 75.769 4.93826C74.4336 4.96157 73.3688 5.99838 73.3908 7.25404C73.4127 8.5097 74.513 9.50872 75.8484 9.48541Z" fill="#113B3C"/>
  <path d="M43.8672 22.1455C42.7794 24.6682 41.0048 26.4103 38.5434 27.372C38.0327 27.5711 37.5237 27.7201 37.0166 27.8189C33.5624 28.4907 29.9372 27.6737 27.5325 25.1353C26.1318 23.6571 25.1925 21.6606 24.8664 19.5668C24.565 17.6323 24.5901 15.7582 24.9417 13.9443C25.31 12.0463 26.1027 10.4052 27.3197 9.02102C28.6079 7.5565 30.4456 6.49858 32.4041 6.11022C35.5703 5.4817 38.8558 6.09122 41.3068 8.1987C43.5085 10.0911 44.5603 12.8643 44.7594 15.7022C44.9122 17.8826 44.7108 20.1885 43.8672 22.1455ZM40.1447 15.8435C39.9076 12.8096 38.3412 10.0204 34.9646 9.92162C33.1122 9.86741 31.6743 10.5205 30.6508 11.8809C29.3634 13.5924 29.1536 16.0313 29.3246 18.1235C29.5435 20.8124 30.8211 23.4215 33.6901 23.9147C34.4663 24.0485 35.2161 24.0384 35.9396 23.8843C38.3542 23.3698 39.6424 21.349 40.0277 19.0097C40.1929 18.0116 40.2319 16.9562 40.1447 15.8435Z" fill="#113B3C"/>
  <path d="M22.3189 10.0608C22.0864 10.5826 21.8753 11.1498 21.6858 11.7624C21.6782 11.7867 21.662 11.7989 21.6372 11.7989H14.0228C13.9908 11.7989 13.965 11.7862 13.9452 11.7609L12.2611 9.55536C12.2444 9.53357 12.2444 9.51153 12.2611 9.48924L13.9597 7.26548C13.9651 7.25838 13.9722 7.25264 13.9802 7.24868C13.9882 7.24473 13.9971 7.24267 14.006 7.24268H24.0586C24.1148 7.24268 24.1247 7.26421 24.0882 7.30728C23.3241 8.21168 22.7344 9.1295 22.3189 10.0608Z" fill="#009749"/>
  <path d="M68.8562 11.5681H71.7883C71.8202 11.5681 71.8362 11.5838 71.8362 11.6152V14.8901C71.8362 14.9215 71.8202 14.9372 71.7883 14.9372H68.8372C68.8282 14.9372 68.8195 14.9409 68.813 14.9474C68.8066 14.954 68.803 14.9629 68.803 14.9722C68.801 17.5668 68.8013 20.1969 68.8038 22.8625C68.8053 24.5527 70.2136 24.4615 71.3992 24.213C71.4179 24.2089 71.4293 24.2163 71.4334 24.235L72.1258 27.5266C72.127 27.5324 72.1261 27.5385 72.1231 27.5437C72.1202 27.5489 72.1154 27.5528 72.1098 27.5547C69.3381 28.4492 65.0813 28.1673 64.4247 24.5314C64.3547 24.1454 64.3203 23.7081 64.3213 23.2197C64.3284 18.0426 64.3299 12.8725 64.3259 7.7096C64.3259 7.70335 64.3284 7.69735 64.333 7.69294C64.3376 7.68852 64.3437 7.68604 64.3502 7.68604H68.7719C68.7921 7.68604 68.8023 7.69592 68.8023 7.71568V11.5142C68.8023 11.5501 68.8203 11.5681 68.8562 11.5681Z" fill="#113B3C"/>
  <path d="M137.761 27.9595C134.536 27.48 132.18 25.1422 131.555 21.9631C131.227 20.2977 131.256 18.6749 131.643 17.0946C132.349 14.2119 134.49 12.0694 137.435 11.5207C139.165 11.1985 141.156 11.311 142.777 12.033C144.893 12.9769 146.377 14.8548 146.904 17.093C147.52 19.7052 147.286 22.6942 145.745 24.9309C143.936 27.5582 140.829 28.4163 137.761 27.9595ZM139.418 14.7864C137.17 14.7066 136.165 16.6697 135.946 18.613C135.677 20.9926 136.264 24.7858 139.535 24.5775C141.574 24.4483 142.417 22.4731 142.609 20.7023C142.846 18.5097 142.34 14.8906 139.418 14.7864Z" fill="#113B3C"/>
  <path d="M51.3928 25.1622C51.3869 25.1652 51.3819 25.1698 51.3784 25.1754C51.3749 25.181 51.3731 25.1875 51.3731 25.1942V33.7647C51.3731 33.7794 51.3672 33.7935 51.3568 33.8039C51.3464 33.8143 51.3323 33.8202 51.3176 33.8202H46.9301C46.92 33.8202 46.9103 33.8162 46.9032 33.809C46.8961 33.8019 46.8921 33.7922 46.8921 33.7822V11.5879C46.8921 11.5824 46.8943 11.5772 46.8981 11.5734C46.9019 11.5695 46.9072 11.5674 46.9126 11.5674L51.2811 11.5681C51.2885 11.5681 51.2957 11.5712 51.301 11.5766C51.3063 11.582 51.3092 11.5893 51.3092 11.597V14.2251C51.3092 14.241 51.3156 14.2563 51.327 14.2675C51.3384 14.2788 51.3539 14.2851 51.37 14.2851L51.4567 14.2859C51.4845 14.2859 51.5045 14.2735 51.5167 14.2486C52.2068 12.8609 53.2958 11.7946 54.7619 11.4898C56.8983 11.046 59.0833 11.6867 60.5645 13.2888C62.5093 15.3917 62.8369 18.5822 62.5397 21.3189C62.1468 24.9388 59.9535 28.0328 55.987 28.016C53.9228 28.0077 52.4082 26.9862 51.5197 25.2018C51.5101 25.183 51.4962 25.1696 51.4779 25.1615C51.4496 25.1493 51.4212 25.1496 51.3928 25.1622ZM51.7341 17.0082C50.8327 19.2373 51.0303 24.1963 54.4077 24.4288C55.7491 24.5216 56.7812 23.9082 57.3862 22.7614C57.9737 21.6488 58.115 20.3476 58.0367 19.0632C57.9417 17.4984 57.3277 15.5908 55.6617 15.0786C55.0948 14.9043 54.5045 14.8838 53.8909 15.017C52.8551 15.2427 52.1277 16.0362 51.7341 17.0082Z" fill="#113B3C"/>
  <path d="M93.929 14.3748C94.2416 13.5216 94.7823 12.8277 95.5509 12.2932C96.5921 11.5697 97.8172 11.3082 99.0925 11.363C101.129 11.4504 102.837 12.5866 103.506 14.5344C103.739 15.2144 103.856 15.9534 103.856 16.7514C103.856 20.41 103.856 24.0704 103.857 27.7326C103.857 27.7389 103.854 27.7448 103.85 27.7493C103.846 27.7537 103.84 27.7562 103.833 27.7562H99.4124C99.407 27.7562 99.4018 27.754 99.3979 27.7502C99.3941 27.7463 99.3919 27.7411 99.3919 27.7356C99.3944 24.3648 99.3937 21.0043 99.3896 17.6542C99.3889 17.3062 99.3326 16.9239 99.2179 16.588C98.8964 15.6486 98.0194 15.1006 97.0352 15.0626C95.3381 14.9958 94.3189 16.151 94.3174 17.8002C94.3154 21.0621 94.3151 24.3673 94.3166 27.7159C94.3166 27.7427 94.3029 27.7562 94.2756 27.7562H90.0006C89.9839 27.7562 89.9755 27.7476 89.9755 27.7303C89.9755 24.5105 89.9753 21.1558 89.9748 17.6664C89.9748 16.4998 89.4101 15.4312 88.2154 15.1432C87.0024 14.8498 85.8745 15.318 85.2696 16.4268C85.0188 16.8864 84.8936 17.4371 84.8942 18.0791C84.8952 21.4859 84.8952 24.6977 84.8942 27.7144C84.8942 27.7422 84.8805 27.7562 84.8531 27.7562H80.4413C80.4349 27.7562 80.4287 27.7536 80.4241 27.749C80.4196 27.7445 80.417 27.7383 80.417 27.7318V11.6122C80.417 11.5829 80.4319 11.5682 80.4618 11.5682H84.6449C84.6722 11.5682 84.6859 11.5818 84.6859 11.6092V14.3642C84.6859 14.4118 84.709 14.4308 84.7551 14.4212C84.7713 14.4177 84.7872 14.4177 84.8029 14.4212C84.8425 14.4308 84.8696 14.4166 84.8843 14.3786C85.7302 12.1214 87.7677 11.1304 90.1009 11.4002C91.8497 11.6031 93.2367 12.6755 93.7383 14.3847C93.7414 14.3952 93.7478 14.4045 93.7565 14.411C93.7653 14.4176 93.776 14.4212 93.7869 14.4212H93.8629C93.8958 14.4212 93.9179 14.4058 93.929 14.3748Z" fill="#113B3C"/>
  <path d="M119.564 14.4211C119.607 14.4378 119.645 14.434 119.679 14.4097C119.698 14.3965 119.711 14.3793 119.718 14.358C120.001 13.5985 120.462 12.9674 121.102 12.4648C122.168 11.6273 123.45 11.3127 124.831 11.3613C127.828 11.4669 129.626 13.7013 129.634 16.6C129.642 19.4545 129.643 23.1595 129.638 27.715C129.638 27.7423 129.624 27.756 129.597 27.756H125.224C125.191 27.756 125.174 27.7393 125.174 27.7059C125.175 24.3644 125.175 21.0323 125.175 17.7096C125.175 16.8211 124.914 16.0011 124.157 15.4873C123.415 14.9835 122.333 14.9303 121.542 15.2761C120.554 15.7077 120.101 16.755 120.1 17.8099C120.097 21.0997 120.097 24.4009 120.1 27.7135C120.1 27.7418 120.086 27.756 120.058 27.756H115.783C115.776 27.756 115.769 27.7533 115.765 27.7484C115.76 27.7436 115.757 27.737 115.757 27.7302C115.757 24.4054 115.757 21.0523 115.758 17.6708C115.758 16.1668 114.833 15.0199 113.264 15.061C111.637 15.1035 110.677 16.4457 110.678 18.0007C110.679 21.4972 110.679 24.7345 110.678 27.7127C110.678 27.7416 110.664 27.756 110.635 27.756H106.225C106.218 27.756 106.211 27.7531 106.206 27.748C106.201 27.7429 106.198 27.7359 106.198 27.7287L106.199 11.5977C106.199 11.5898 106.202 11.5823 106.207 11.5767C106.213 11.5711 106.22 11.568 106.228 11.568H110.428C110.455 11.568 110.469 11.5817 110.469 11.6091V14.3641C110.469 14.3788 110.475 14.3929 110.485 14.4036C110.495 14.4142 110.508 14.4205 110.523 14.4211L110.597 14.4241C110.634 14.4256 110.658 14.4091 110.671 14.3747C111.544 12.002 113.849 10.9889 116.288 11.4647C117.849 11.7694 119.068 12.8304 119.514 14.3663C119.517 14.3786 119.524 14.39 119.532 14.3995C119.541 14.409 119.552 14.4163 119.564 14.4211Z" fill="#113B3C"/>
  <path d="M78.0056 11.5679H73.59C73.5732 11.5679 73.5596 11.5815 73.5596 11.5983V27.7255C73.5596 27.7423 73.5732 27.7559 73.59 27.7559H78.0056C78.0224 27.7559 78.036 27.7423 78.036 27.7255V11.5983C78.036 11.5815 78.0224 11.5679 78.0056 11.5679Z" fill="#113B3C"/>
  <path d="M21.059 14.6315C20.8887 16.1431 20.8789 17.6038 21.0537 19.1079C21.0572 19.1383 21.0435 19.1535 21.0126 19.1535H10.1089C10.0876 19.1535 10.0711 19.1446 10.0595 19.1269L8.55621 16.9122C8.54051 16.8894 8.54051 16.8664 8.55621 16.8431L10.0481 14.6444C10.0679 14.6155 10.0952 14.6011 10.1302 14.6011L21.0316 14.6018C21.0355 14.6018 21.0393 14.6026 21.0428 14.6041C21.0464 14.6057 21.0495 14.6079 21.0521 14.6107C21.0547 14.6135 21.0567 14.6168 21.0578 14.6204C21.059 14.624 21.0594 14.6277 21.059 14.6315Z" fill="#F8B700"/>
  <path d="M21.6784 21.9974C22.0501 23.2225 22.554 24.3815 23.2767 25.4174C23.4525 25.6697 23.717 26.02 24.0702 26.4684C24.0899 26.4938 24.0838 26.5064 24.0519 26.5064H6.44728C6.41992 26.5064 6.39864 26.495 6.38344 26.4722L4.89004 24.2743C4.87129 24.2465 4.87129 24.2186 4.89004 24.1907L6.37964 21.9989C6.39889 21.97 6.42574 21.9556 6.4602 21.9556H21.6222C21.6511 21.9556 21.6698 21.9695 21.6784 21.9974Z" fill="#FF772A"/>
</svg>
